<?xml version="1.0" encoding="utf-8"?>
<!-- Generator: Adobe Illustrator 25.1.0, SVG Export Plug-In . SVG Version: 6.00 Build 0)  -->
<svg version="1.1" id="Layer_1" xmlns="http://www.w3.org/2000/svg" xmlns:xlink="http://www.w3.org/1999/xlink" x="0px" y="0px"
	 viewBox="0 0 1121.39 1135.41" style="enable-background:new 0 0 1121.39 1135.41;" xml:space="preserve">
<style type="text/css">
	.st0{fill:#606060;}
	.st1{fill:#DF9D38;}
	.st2{fill:#F3F5F6;}
	.st3{fill:#E8A13A;}
	.st4{fill:#F2F4F4;}
	.st5{fill:#EEF1F1;}
	.st6{fill:#F0F2F3;}
	.st7{fill:#E9ECEC;}
	.st8{fill:#2E4C4F;}
	.st9{fill:#1F4749;}
</style>
<rect class="st0" width="1121.39" height="1135.41"/>
<g>
	<path class="st1" d="M566.31,601.45c2.12-1.29,2.19-3.64,2.81-5.64c6.74-21.62,13.42-43.26,20.11-64.89
		c0.34-1.11,0.79-2.2,1.02-3.34c0.46-2.25,1.81-3.65,4.01-3.84c2.32-0.21,3.65,1.39,4.44,3.35c3.11,7.72,6.17,15.45,9.25,23.18
		c5.11,12.84,10.2,25.69,15.37,38.51c0.59,1.46,0.67,3.27,2.51,4.34c8.57-37.25,17.07-74.37,25.67-111.46
		c0.89-3.84,0.49-9.43,6.15-9.48c5.84-0.06,5.29,5.64,6.01,9.44c9.79,51.44,19.45,102.9,29.14,154.36c0.33,1.74,0.4,3.57,1.79,5.32
		c5.57-12.29,11.18-24.32,16.45-36.5c1.51-3.49,3.51-4.82,7.2-4.56c3.79,0.26,7.61,0.06,11.89,0.06
		c-2.06,4.81-2.05,10.49-9.29,10.01c-2.28-0.15-2.73,2.63-3.53,4.4c-6.39,14.11-12.74,28.24-19.1,42.37
		c-0.21,0.46-0.41,0.91-0.61,1.37c-1.22,2.68-2.61,5.16-6.18,4.73c-3.65-0.44-4.24-3.4-4.78-6.17c-2.16-11.09-4.2-22.21-6.29-33.31
		c-7.29-38.73-14.57-77.46-21.87-116.19c-0.26-1.4-0.1-3.06-2.03-3.94c-7.11,30.85-14.2,61.61-21.3,92.38
		c-0.97,4.22-1.98,8.43-2.89,12.67c-0.66,3.04-1.4,6.11-5.11,6.52c-3.85,0.42-4.92-2.65-6.06-5.5c-7.83-19.6-15.68-39.2-23.53-58.8
		c-0.59-1.47-1.25-2.9-2.16-4.99c-2.73,5.36-3.75,10.58-5.33,15.57c-4.7,14.89-9.31,29.81-13.71,44.8c-1.29,4.38-3.55,6.26-8.2,6.15
		c-11.16-0.24-22.32-0.12-33.49-0.15c3.93-7.63,9.77-11.06,18.68-9.84C557.51,602.93,562.13,603.67,566.31,601.45z"/>
	<path class="st2" d="M44.71,591.12c1.45,0.47,1.27,1.22,1.31,1.84c0.62,10.36,3.51,14.13,13.45,16.99c2.7,0.78,5.53,1.22,8.34,1.43
		c8.9,0.67,16.76-1.54,21.28-9.9c4.79-8.86,3.72-17.74-1.85-25.95c-5.71-8.41-14.38-13.75-21.84-20.35
		c-7.64-6.77-14.9-13.8-17.11-24.36c-3.66-17.48,7.2-32.33,24.98-34.21c8.87-0.94,17.55,0.61,26.25,1.96
		c1.33,0.21,1.74,0.88,1.5,2.01c-1.14,5.31-0.75,10.74-0.99,17.39c-4.39-13.73-10.02-16.48-24.04-15.59
		c-7.8,0.49-13.51,2.75-16.3,9.97c-3.06,7.91-1.51,15.37,3.91,21.95c6.1,7.41,14.27,12.46,21.44,18.65
		c3.53,3.06,6.92,6.23,9.93,9.82c8.84,10.53,10.87,22.32,5.71,34.93c-5.23,12.78-15.93,18.2-29.05,19.47
		c-8.04,0.77-15.92-0.22-23.56-3.06c-3.26-1.21-4.82-3.19-4.49-6.76C44.06,601.97,44.34,596.6,44.71,591.12z"/>
	<path class="st3" d="M217.27,566.49c0-8.16,0.19-16.32-0.08-24.47c-0.14-4.14,2.14-4.7,5.25-4.65c3.01,0.04,5.48,0.35,5.43,4.57
		c-0.18,15.48-0.15,30.97-0.04,46.45c0.07,9.3,6.43,16.85,14.84,18.07c9.25,1.34,17.22-3.31,20.23-11.74
		c0.92-2.57,0.97-5.22,0.97-7.88c0-14.65,0.14-29.31-0.08-43.96c-0.06-4.32,1.83-5.56,5.64-5.55c3.81,0.01,5.6,1.22,5.52,5.58
		c-0.27,15.15,0,30.3-0.13,45.45c-0.13,14.7-11.35,27.32-25.36,28.83c-15.1,1.63-29.19-7.83-31.55-22.8
		c-1.44-9.09-0.26-18.58-0.26-27.9C217.52,566.49,217.39,566.49,217.27,566.49z"/>
	<path class="st2" d="M825.31,587.02c-0.62,4.5,0.29,8.94,0.64,13.39c0.36,4.53,3.45,5.75,7.39,5.95c-6.89,0-13.78,0-20.93,0
		c1.64-1.43,5.23,0.43,4.72-3.43c2.03-1.41,1.4-3.65,1.41-5.48c0.13-22.12,0.13-44.23,0.17-66.35c0.69-4.53,2.21-3.55,4.61-0.94
		c17.79,19.36,35.67,38.64,53.56,57.92c1.08,1.16,1.82,2.77,3.77,3.31c0-8.34,0.09-16.55-0.02-24.76
		c-0.13-9.49-0.41-18.97-0.67-28.45c-0.19-7.09-1.09-8.06-9.28-9.12c7.7,0,14.23,0,20.76,0c-5.58,0.62-5.32,4.85-5.33,8.83
		c-0.06,21.3-0.07,42.61-0.17,63.91c-0.01,1.73,0.93,4.32-0.77,5.04c-2.06,0.87-3.27-1.73-4.6-3.04
		c-16.72-16.48-32.78-33.59-48.43-51.08c-2.28-2.55-4.67-5-7.62-8.15c-0.74,4.49-0.86,7.97,0.21,11.45
		C824.92,566.36,825.11,576.69,825.31,587.02z"/>
	<path class="st4" d="M204.07,574.3c0.02,24.42-17.13,42.05-40.95,42.1c-23.53,0.05-40-16.54-40-40.28
		c0-22.82,17.6-40.33,40.58-40.36C187.77,535.71,204.05,551.26,204.07,574.3z M194.12,578.4c0.05-12.16-3.06-21.79-9-28.8
		c-13.56-16-40.25-13.12-48.39,5.69c-6.66,15.4-5.2,30.78,4.44,44.64c7.09,10.19,17.61,14.17,29.78,12
		c12.15-2.16,18.9-10.31,21.75-22.03C193.7,585.82,193.95,581.68,194.12,578.4z"/>
	<path class="st5" d="M399.31,543.37c-0.48,2.64-0.58,5.3-0.26,7.96c-0.38,5.94-0.75,11.88,0.19,17.8c14.2,0.11,28.4,0.23,42.6,0.33
		c0.73,0.01,1.23-0.33,1.3-1.12c0-0.33-0.01-0.66-0.01-0.99c-0.01-6.66-0.01-13.32-0.02-19.99c0.36-7.54-0.99-9.12-7.86-9.19
		l0.07,0.02c-0.1-0.26-0.14-0.53-0.11-0.81l-0.04,0.02c7.96,0.02,15.93,0.03,23.89,0.05l-0.05-0.04c0,0.26-0.03,0.51-0.09,0.76
		l0.07-0.03c-4.67-0.71-6.32,1.81-6.42,6c-0.49,21.12-0.72,42.24,0.24,63.36c0.11,2.42,0.23,5.12,3.27,6.1
		c1.29,1.33,3.15,0.24,5.42,1.53c-8.53,0.01-16.21-0.77-25.13,0.29c7.76-2.65,6.47-8.24,6.66-13.2c0.07-8.15-0.04-16.3,0.29-24.44
		c0.13-3.33-1.17-3.71-4-3.68c-12.14,0.14-24.29,0.02-36.43,0.11c-1.26,0.01-3.04-0.96-3.77,1.12c-0.65,10.76-0.47,21.53,0.22,32.27
		c0.34,5.27,1.64,6.24,6.35,6.87c-6.71,0-14.6,0-22.48,0c0.7-0.12,1.4-0.24,2.1-0.36c0.36-0.05,0.72-0.1,1.07-0.15
		c2.95-1.16,2.83-3.87,3-6.28c1.47-20.74,0.68-41.5,0.51-62.26c-0.04-4.26-1.17-8.12-6.76-7.96c6.96,0,13.92,0,20.88,0
		C400.42,537.94,399.21,540.11,399.31,543.37z"/>
	<path class="st6" d="M806.52,606.36c-1.15,0.1-2.3,0.28-3.44,0.28c-4.33-0.02-9.18,1.07-12.82-0.55c-2.88-1.28-2.21-6.6-3.75-9.97
		c-2.34-5.12-4.28-10.44-6.02-15.8c-0.91-2.81-2.14-4.05-5.25-3.9c-5.48,0.26-10.99,0.1-16.49,0.06c-1.93-0.02-3.35,0.03-4.09,2.48
		c-1.95,6.5-4.58,12.81-6.37,19.35c-0.8,2.91-2.77,7.37,4.16,7.58c-3.91,1.17-7.16,0.41-10.36,0.54c-3.14,0.13-6.29,0.03-9.62-0.24
		c6.43-0.31,8.17-5.11,9.93-9.89c7.6-20.68,15.17-41.37,22.85-62.02c0.87-2.34,0.8-6.26,3.49-6.38c1.86-0.08,2.37,3.87,3.24,6.13
		c8.33,21.41,16.66,42.81,24.88,64.26C798.65,602.94,801.32,606.06,806.52,606.36z M776.95,571.37c-3.22-9.32-6.43-18.64-9.65-27.96
		c-0.34,0.04-0.68,0.09-1.02,0.13c-2.7,8.61-5.41,17.23-8.11,25.84c0.06,1-1.51,2.85-0.19,2.83
		C764.31,572.1,770.73,573.68,776.95,571.37z"/>
	<path class="st5" d="M528.82,612.24c-6.03,3.11-12.38,4.46-19.21,4.17c-15.62-0.67-25.75-9.9-27.53-25.5
		c-1.14-9.95-0.45-19.95-0.61-29.93c-0.09-5.32-0.13-10.65-0.2-15.97c-0.06-4.58-1.93-7.35-6.98-7.38c6.43,0,12.86,0,19.78,0
		c-3.22,2.22-3.22,5.55-3.27,8.83c-0.22,14.48-0.82,28.97,0.28,43.42c1.38,18.28,16.71,27.77,32.37,20.24
		c0.28-0.13,0.48-0.44,0.71-0.67c6.29-2.76,9.04-8.21,10.13-14.43c2.79-16.01,1.16-32.17,1.27-48.28c0.03-4.53-0.25-8.96-6.39-9.34
		c6.65,0,13.29,0,19.94,0l-0.02-0.02c0.05,0.3,0.01,0.58-0.13,0.85l0.08-0.03c-3.86-0.45-6.2,0.85-5.96,5.15
		c-0.06,1.36-0.11,2.72-0.17,4.08l-0.24,0.39l0.23,0.4c-0.09,12.02-0.18,24.04-0.27,36.05
		C541.31,595.22,538.99,605.67,528.82,612.24z"/>
	<path class="st2" d="M1020.46,545.29c-0.74-9.75-8.11-11.42-15.43-12.88c-7.42-1.49-14.92-1.49-22.33,0.13
		c-9.55,2.09-16.31,7.88-19.23,17.06c-4.7,14.79-3.56,29.02,7.08,41.26c10.52,12.1,24.17,14.21,39.16,11.54
		c5.55-0.99,8.78-4.88,11.78-9.09c0.45-0.63-0.14-1.17-0.45-1.31c-1.62,1.7-1.19,3.62-0.93,5.74c0.64,5.23-1.25,7.68-6.45,8.83
		c-11.08,2.44-22.2,2.45-33.13-0.61c-19.94-5.59-31.06-23.2-28.43-44.56c2.42-19.62,17.38-32.78,38.34-33.9
		c9.75-0.52,19.23,1.25,28.77,2.74c1.2,0.19,2.34,0.17,2.19,1.92C1021.04,536.52,1020.76,540.91,1020.46,545.29z"/>
	<path class="st6" d="M1038.57,591.39c2.62,10.73,13.76,16.19,23.91,11.45c7.97-3.72,10.02-14.68,4.26-22.8
		c-3.13-4.41-7.44-7.59-11.54-10.97c-3.73-3.08-7.36-6.25-10.26-10.17c-9.81-13.27-3.17-29.12,13.14-31.27
		c5.52-0.73,10.96,0.15,16.32,1.45c0.76,0.18,2.03-0.19,1.85,1.48c-0.36,3.38-0.53,6.78-0.86,11.17c-2.98-9.62-14.03-13.65-22.18-9
		c-6.24,3.56-7.47,12.75-2.53,19.26c3.68,4.84,8.82,8.05,13.38,11.93c5.46,4.64,10.92,9.28,12.96,16.64
		c3.08,11.13-2.62,22.23-13.54,25.99c-7.19,2.47-14.37,2.04-21.57-0.17c-3.05-0.94-4.28-2.68-3.91-5.86
		C1038.36,597.5,1038.4,594.44,1038.57,591.39z"/>
	<path class="st5" d="M294.97,542.51c-0.46-4.42-3.89-4.27-7.03-4.94c7.98,0,15.95,0,23.93,0c-3.72,0.28-6.9,1.01-6.82,5.76
		c-0.91,19.34-0.9,38.68,0.02,58.02c0.64,8.25,1.85,9.48,9.86,9.82c2.66,0.11,5.33,0.08,7.99,0.03c5.85-0.09,11.2-0.99,12.97-8.09
		c-0.58,3.24-1.16,6.48-1.75,9.71c-0.52,2.8-2.76,2.5-4.71,2.47c-7.49-0.1-14.97-0.34-22.46-0.43c-5.65-0.07-11.31-0.01-17.37-0.01
		c4.59-0.78,5.39-3.96,5.42-7.64C295.56,585.64,295.68,564.07,294.97,542.51z"/>
	<path class="st7" d="M917.64,533.21c-0.55-2.68-0.55-2.68-5.01-4.25c7.25,0.27,14.51,0.31,21.83,0.08
		c-3.51,0.77-5.56,2.61-5.37,6.35c-0.56,20.64-0.58,41.27,0.03,61.91c0.46,7.23,1.07,7.95,7.48,9.05c-7.57,0-15.13,0-22.7,0
		c2.87-0.62,5.3-1.69,4.22-5.43c1.09-0.57,1.02-1.65,1.02-2.61c0.05-20.73,0.09-41.46,0.06-62.19
		C919.19,535.06,919.83,533.27,917.64,533.21z"/>
	<path class="st8" d="M385.3,614.12c-0.7,0.12-1.4,0.24-2.1,0.36c0.28-0.55,0.45-1.46,0.86-1.58
		C384.76,612.7,385.11,613.46,385.3,614.12z"/>
	<path class="st8" d="M435.21,537.4c-0.03,0.28,0.01,0.55,0.11,0.81c-0.45-0.1-0.91-0.2-1.36-0.3
		C434.37,537.74,434.79,537.57,435.21,537.4z"/>
	<path class="st9" d="M548.95,538.24c0.13-0.27,0.18-0.56,0.13-0.85c0.42,0.18,0.83,0.36,1.25,0.54
		C549.86,538.03,549.4,538.13,548.95,538.24z"/>
	<path class="st8" d="M458.92,538.19c0.05-0.25,0.08-0.5,0.09-0.76c0.43,0.16,0.86,0.31,1.29,0.47
		C459.84,538,459.38,538.09,458.92,538.19z"/>
</g>
</svg>
